<svg width="145" height="166" viewBox="0 0 145 166" fill="none" xmlns="http://www.w3.org/2000/svg">
<path fill-rule="evenodd" clip-rule="evenodd" d="M123.963 90.8776V90.8918V107.17C123.963 131.548 104.085 151.38 79.6504 151.38C55.2147 151.38 35.3363 131.548 35.3363 107.17V90.8918V74.5964V59.0889C35.3363 34.7108 55.2147 14.8786 79.6504 14.8786C104.085 14.8786 123.963 34.7108 123.963 59.0889V74.5816L144.448 74.5465V27.3501C129.28 10.5597 107.316 0 82.8761 0C37.1043 0 0 37.0175 0 82.6806C0 128.344 37.1043 165.361 82.8761 165.361C107.316 165.361 129.28 154.802 144.448 138.011V90.8417L123.963 90.8776Z" fill="#2F4896"/>
<path fill-rule="evenodd" clip-rule="evenodd" d="M51.6702 107.171C51.6702 122.563 64.2228 135.085 79.6511 135.085C95.0794 135.085 107.631 122.563 107.631 107.171V90.8913H51.6702V107.171Z" fill="#6BBDE5"/>
<path fill-rule="evenodd" clip-rule="evenodd" d="M107.631 59.0904C107.631 43.6977 95.0794 31.1768 79.6511 31.1768C64.2228 31.1768 51.6702 43.6977 51.6702 59.0904V74.5972H107.631V59.0904Z" fill="#3C61A7"/>
</svg>
