<svg xmlns="http://www.w3.org/2000/svg" width="145" height="166" fill="none" viewBox="0 0 145 166"><path fill="#2f4896" fill-rule="evenodd" d="M123.963 90.878v16.292c0 24.378-19.878 44.21-44.313 44.21s-44.314-19.832-44.314-44.21V59.089c0-24.378 19.879-44.21 44.314-44.21s44.313 19.832 44.313 44.21v15.493l20.485-.035V27.35C129.28 10.56 107.316 0 82.876 0 37.104 0 0 37.018 0 82.68c0 45.664 37.104 82.681 82.876 82.681 24.44 0 46.404-10.559 61.572-27.35v-47.17z" clip-rule="evenodd"/><path fill="#6bbde5" fill-rule="evenodd" d="M51.67 107.171c0 15.392 12.553 27.914 27.981 27.914s27.98-12.522 27.98-27.914v-16.28h-55.96z" clip-rule="evenodd"/><path fill="#3c61a7" fill-rule="evenodd" d="M107.631 59.09c0-15.392-12.552-27.913-27.98-27.913s-27.98 12.52-27.98 27.913v15.507h55.96z" clip-rule="evenodd"/></svg>
